<svg width="15" height="16" fill="none" xmlns="http://www.w3.org/2000/svg">
  <path d="M6.24451 1.72804c-.22593-.21969-.41809-.41425-.61938-.59858-.02224-.02032-.11664-.11744-.11664-.11744L6.52035 0s.05088.0596813.08656.096002C7.37637.867538 8.94984 2.44197 8.95544 2.45029L6.48451 4.9089c-.288-.29392-.89602-.92242-.89602-.92242l-.072-.076s.48881-.47233.68034-.65777l-.03825-.06864c-.3992.1624-.81105.29936-1.1949.49185-1.16595.58481-2.03124 1.48035-2.59205 2.65397-.44593.93298-.6349 1.9218-.53106 2.95894.20033 2.00227 1.18115 3.50997 2.90791 4.52267 1.07762.632 2.25876.864 3.49591.7013 2.24741-.2955 3.81091-1.5152 4.70421-3.5894.2591-.6014.3841-1.23968.3986-1.89745.0026-.12048 0-.24977 0-.24977h.256c.3288 0 .658.0064.9864-.00288.0754-.00208.1972.00352.1972.00352s.0024.11665 0 .19313c-.032 1.03525-.256 2.02565-.7172 2.95315-.8886 1.7892-2.2682 3.0593-4.17078 3.6734-2.67973.864-5.1073.336-7.20943-1.541-1.20642-1.0773-1.941319-2.4481-2.195724-4.041C.129818 7.73744.70919 5.71036 2.25274 3.98232c1.0421-1.16722 2.34741-1.89156 3.87368-2.22228.02208-.00496.04416-.012.11809-.032Z" fill="currentColor"/>
</svg>
